<svg xmlns="http://www.w3.org/2000/svg" width="259.4" height="127.636" viewBox="0 0 259.4 127.636">
  <g id="Group_56726" data-name="Group 56726" transform="translate(9830.563 11678.111)">
    <path id="Path_21818" data-name="Path 21818" d="M569.876,398.661H484.557A21.159,21.159,0,0,1,463.4,377.5V292.184a21.159,21.159,0,0,1,21.159-21.159h85.319a21.159,21.159,0,0,1,21.159,21.159V377.5a21.159,21.159,0,0,1-21.159,21.159" transform="translate(-10293.962 -11949.137)" fill="#450072"/>
    <path id="Path_21822" data-name="Path 21822" d="M524.785,281.234v14.219H504.712v59.7H486.728v-59.7H466.866V281.234Z" transform="translate(-10288.287 -11932.43)" fill="#fff"/>
    <path id="Path_21819" data-name="Path 21819" d="M543.692,320H503.233q.316,6.585,3.346,9.46a10.772,10.772,0,0,0,7.736,2.877,10.575,10.575,0,0,0,6.586-1.985,9.282,9.282,0,0,0,3.452-5.123h18.92a24.708,24.708,0,0,1-5.017,11.029,26.751,26.751,0,0,1-9.824,7.633,33.579,33.579,0,0,1-28.491-.838,25.74,25.74,0,0,1-10.4-10.4,35.753,35.753,0,0,1-.053-31.835,25.421,25.421,0,0,1,10.4-10.349,34.341,34.341,0,0,1,30.53-.055A25.136,25.136,0,0,1,540.61,300.4a29.731,29.731,0,0,1,3.607,14.794,24.7,24.7,0,0,1-.525,4.809m-20.647-16.152a11.348,11.348,0,0,0-7.891-2.874A11.722,11.722,0,0,0,507,303.9q-3.239,2.931-3.66,8.574h22.794q.1-5.747-3.085-8.625" transform="translate(-10257.341 -11923.213)" fill="#fff"/>
    <path id="Path_21804" data-name="Path 21804" d="M618.527,300.157c-8.593-11.456-25.412-13.679-36.486-4.62-3.567,2.919-6.681,6.4-9.985,9.637a5.343,5.343,0,0,0-.667,1.131c-3.019-3.019-5.7-5.714-8.395-8.4-6.27-6.238-13.816-8.98-22.564-7.607-9.626,1.513-16.363,7.005-20.075,15.994a51.551,51.551,0,0,0-1.891,7.43v4.116c.063.3.153.593.187.894a25.833,25.833,0,0,0,42.985,16.181c2.995-2.768,5.809-5.732,8.709-8.6.259-.256.528-.5.833-.788,2.816,2.819,5.54,5.571,8.292,8.3a25.83,25.83,0,0,0,39.056-33.667M541.308,330c-7.3,0-13.217-6.365-13.217-14.219s5.919-14.217,13.217-14.217,13.22,6.365,13.22,14.217S548.609,330,541.308,330m60.416,0c-7.3,0-13.217-6.365-13.217-14.219s5.917-14.217,13.217-14.217,13.217,6.365,13.217,14.217S609.024,330,601.723,330" transform="translate(-10203.839 -11918.179)" fill="#450072"/>
    <rect id="Rectangle_19260" data-name="Rectangle 19260" width="17.734" height="58.338" transform="translate(-9693.482 -11634.887)" fill="#450072"/>
    <rect id="Rectangle_19259" data-name="Rectangle 19259" width="17.734" height="77.367" transform="translate(-9588.897 -11653.915)" fill="#450072"/>
    <path id="Path_21820" data-name="Path 21820" d="M522.87,314.543l-.227,1.313H519.83l-1.543,8.767h-1.643l1.542-8.767h-2.8l.227-1.313Z" transform="translate(-10208.869 -11877.914)" fill="#450072"/>
    <path id="Path_21821" data-name="Path 21821" d="M524.25,315.875a2.21,2.21,0,0,1,.836,1.4l.327-1.827h1.627l-1.4,7.868h-1.629l.33-1.827a3.586,3.586,0,0,1-1.307,1.4,3.542,3.542,0,0,1-1.92.527,2.825,2.825,0,0,1-2.157-.828,3.2,3.2,0,0,1-.786-2.286,5.564,5.564,0,0,1,.1-1.055,5.181,5.181,0,0,1,.823-2.078,4.187,4.187,0,0,1,1.484-1.35,3.912,3.912,0,0,1,1.891-.472,2.809,2.809,0,0,1,1.78.53m-3.327,1.6a3.216,3.216,0,0,0-.991,1.9,3.271,3.271,0,0,0-.058.641,1.924,1.924,0,0,0,.527,1.442,2,2,0,0,0,1.458.514,2.694,2.694,0,0,0,1.84-.707,3.2,3.2,0,0,0,1.015-1.891,3.159,3.159,0,0,0,.055-.6,1.966,1.966,0,0,0-.543-1.458,1.945,1.945,0,0,0-1.442-.541,2.688,2.688,0,0,0-1.861.7" transform="translate(-10204.315 -11876.602)" fill="#450072"/>
    <path id="Path_21809" data-name="Path 21809" d="M525.257,314.359,523.4,324.927h-1.642l1.856-10.568Z" transform="translate(-10198.447 -11878.215)" fill="#450072"/>
    <path id="Path_21810" data-name="Path 21810" d="M529.619,315.716a2.6,2.6,0,0,1,1.107,1.036,3.005,3.005,0,0,1,.377,1.506,4.626,4.626,0,0,1-.071.744,5.324,5.324,0,0,1-.185.7h-6.054a3.165,3.165,0,0,0-.029.5,1.84,1.84,0,0,0,.506,1.421,1.9,1.9,0,0,0,1.334.461,2.6,2.6,0,0,0,1.45-.411,2.2,2.2,0,0,0,.891-1.1h1.745a4.163,4.163,0,0,1-1.587,2.054,4.521,4.521,0,0,1-2.655.786,3.294,3.294,0,0,1-2.37-.841,3.043,3.043,0,0,1-.886-2.315,5.691,5.691,0,0,1,.084-.957,4.975,4.975,0,0,1,.873-2.1,4.442,4.442,0,0,1,1.618-1.371,4.676,4.676,0,0,1,2.107-.48,3.788,3.788,0,0,1,1.743.372m-.142,2.613a1.528,1.528,0,0,0-.522-1.255,1.98,1.98,0,0,0-1.305-.43,2.694,2.694,0,0,0-1.706.585,2.858,2.858,0,0,0-.994,1.727h4.456a2.592,2.592,0,0,0,.071-.627" transform="translate(-10196.101 -11876.604)" fill="#450072"/>
    <path id="Path_21811" data-name="Path 21811" d="M534.129,315.983a2.472,2.472,0,0,1,.67,1.864,4.936,4.936,0,0,1-.085.9l-.8,4.582h-1.629l.772-4.411a2.86,2.86,0,0,0,.055-.572,1.6,1.6,0,0,0-.448-1.221,1.766,1.766,0,0,0-1.25-.422,2.376,2.376,0,0,0-1.656.622,3.075,3.075,0,0,0-.9,1.822V319.1l-.744,4.227h-1.643l1.384-7.868H529.5l-.3,1.743a3.3,3.3,0,0,1,1.279-1.384,3.509,3.509,0,0,1,1.822-.485,2.521,2.521,0,0,1,1.827.649" transform="translate(-10190.727 -11876.621)" fill="#450072"/>
    <path id="Path_21812" data-name="Path 21812" d="M532.195,321.867a2.288,2.288,0,0,0-.042.427.682.682,0,0,0,.227.585,1.249,1.249,0,0,0,.744.171h.8l-.271,1.416h-1a2.578,2.578,0,0,1-1.606-.43,1.665,1.665,0,0,1-.551-1.4,4.026,4.026,0,0,1,.074-.8l.686-3.855h-1.144l.242-1.387H531.5l.343-1.956h1.64l-.343,1.956h1.9l-.243,1.387H532.88Z" transform="translate(-10184.78 -11877.755)" fill="#450072"/>
    <path id="Path_21813" data-name="Path 21813" d="M539.877,315.716a2.6,2.6,0,0,1,1.107,1.036,3,3,0,0,1,.377,1.506,4.656,4.656,0,0,1-.071.744,5.326,5.326,0,0,1-.184.7h-6.054a3.153,3.153,0,0,0-.029.5,1.839,1.839,0,0,0,.506,1.421,1.9,1.9,0,0,0,1.334.461,2.606,2.606,0,0,0,1.45-.411,2.2,2.2,0,0,0,.891-1.1h1.745a4.166,4.166,0,0,1-1.587,2.054,4.521,4.521,0,0,1-2.655.786,3.294,3.294,0,0,1-2.37-.841,3.043,3.043,0,0,1-.886-2.315,5.691,5.691,0,0,1,.084-.957,4.975,4.975,0,0,1,.873-2.1,4.441,4.441,0,0,1,1.619-1.371,4.679,4.679,0,0,1,2.109-.48,3.784,3.784,0,0,1,1.74.372m-.142,2.613a1.535,1.535,0,0,0-.519-1.255,1.992,1.992,0,0,0-1.308-.43,2.7,2.7,0,0,0-1.706.585,2.859,2.859,0,0,0-.994,1.727h4.456a2.586,2.586,0,0,0,.071-.627" transform="translate(-10179.313 -11876.604)" fill="#450072"/>
    <path id="Path_21814" data-name="Path 21814" d="M538.916,321.867a2.288,2.288,0,0,0-.042.427.681.681,0,0,0,.227.585,1.249,1.249,0,0,0,.744.171h.8l-.271,1.416h-1a2.578,2.578,0,0,1-1.606-.43,1.666,1.666,0,0,1-.551-1.4,4.045,4.045,0,0,1,.074-.8l.686-3.855H536.83l.242-1.387h1.145l.343-1.956h1.64l-.343,1.956h1.9l-.245,1.387H539.6Z" transform="translate(-10173.781 -11877.755)" fill="#450072"/>
    <path id="Path_21815" data-name="Path 21815" d="M546.248,315.875a2.213,2.213,0,0,1,.836,1.4l.327-1.827h1.629l-1.4,7.868h-1.63l.33-1.827a3.587,3.587,0,0,1-1.308,1.4,3.541,3.541,0,0,1-1.919.527,2.825,2.825,0,0,1-2.157-.828,3.2,3.2,0,0,1-.786-2.286,5.574,5.574,0,0,1,.1-1.055,5.18,5.18,0,0,1,.823-2.078,4.187,4.187,0,0,1,1.484-1.35,3.915,3.915,0,0,1,1.893-.472,2.806,2.806,0,0,1,1.777.53m-3.327,1.6a3.219,3.219,0,0,0-.991,1.9,3.29,3.29,0,0,0-.058.641,1.924,1.924,0,0,0,.527,1.442,2,2,0,0,0,1.458.514,2.694,2.694,0,0,0,1.841-.707,3.2,3.2,0,0,0,1.015-1.891,3.144,3.144,0,0,0,.055-.6,1.967,1.967,0,0,0-.543-1.458,1.944,1.944,0,0,0-1.44-.541,2.69,2.69,0,0,0-1.864.7" transform="translate(-10168.315 -11876.602)" fill="#450072"/>
    <path id="Path_21816" data-name="Path 21816" d="M552.175,315.382l-1.384,7.87h-1.642l.3-1.714a3.38,3.38,0,0,1-1.294,1.35,3.489,3.489,0,0,1-1.79.477,2.308,2.308,0,0,1-2.516-2.539,5.1,5.1,0,0,1,.087-.873l.814-4.572h1.627l-.786,4.4a3.086,3.086,0,0,0-.056.585,1.583,1.583,0,0,0,.448,1.221,1.754,1.754,0,0,0,1.25.422,2.361,2.361,0,0,0,1.656-.627,3.146,3.146,0,0,0,.9-1.83v.058l.741-4.229Z" transform="translate(-10162.295 -11876.541)" fill="#450072"/>
    <path id="Path_21817" data-name="Path 21817" d="M553.549,316.146l-.243,1.371h-5.882l.243-1.371Z" transform="translate(-10156.444 -11875.289)" fill="#450072"/>
    <path id="Path_21805" data-name="Path 21805" d="M559.345,314.359l-1.872,10.568H555.83l.33-1.827a3.6,3.6,0,0,1-1.305,1.4,3.557,3.557,0,0,1-1.922.527,2.82,2.82,0,0,1-2.133-.841,3.2,3.2,0,0,1-.809-2.315,6.578,6.578,0,0,1,.1-1.012,5.142,5.142,0,0,1,.82-2.078,4.186,4.186,0,0,1,1.484-1.35,3.914,3.914,0,0,1,1.893-.472,2.8,2.8,0,0,1,1.777.53,2.211,2.211,0,0,1,.836,1.4l.8-4.527Zm-6.6,4.727a3.219,3.219,0,0,0-.992,1.9,3.32,3.32,0,0,0-.058.641,1.924,1.924,0,0,0,.527,1.442,2,2,0,0,0,1.458.514,2.717,2.717,0,0,0,1.856-.707,3.2,3.2,0,0,0,1.013-1.891,4.446,4.446,0,0,0,.058-.572,2.014,2.014,0,0,0-.543-1.487,1.965,1.965,0,0,0-1.455-.541,2.689,2.689,0,0,0-1.864.7" transform="translate(-10152.243 -11878.214)" fill="#450072"/>
    <path id="Path_21806" data-name="Path 21806" d="M560.114,315.716a2.612,2.612,0,0,1,1.11,1.036,3.031,3.031,0,0,1,.375,1.506,4.652,4.652,0,0,1-.071.744,5.324,5.324,0,0,1-.185.7h-6.051a2.865,2.865,0,0,0-.032.5,1.84,1.84,0,0,0,.506,1.421,1.9,1.9,0,0,0,1.334.461,2.622,2.622,0,0,0,1.453-.411,2.21,2.21,0,0,0,.888-1.1h1.748a4.186,4.186,0,0,1-1.59,2.054,4.522,4.522,0,0,1-2.655.786,3.294,3.294,0,0,1-2.37-.841,3.044,3.044,0,0,1-.886-2.315,5.667,5.667,0,0,1,.087-.957,4.932,4.932,0,0,1,.87-2.1,4.448,4.448,0,0,1,1.621-1.371,4.659,4.659,0,0,1,2.107-.48,3.777,3.777,0,0,1,1.74.372m-.14,2.613a1.536,1.536,0,0,0-.522-1.255,1.993,1.993,0,0,0-1.308-.43,2.7,2.7,0,0,0-1.706.585,2.859,2.859,0,0,0-.994,1.727H559.9a2.581,2.581,0,0,0,.074-.627" transform="translate(-10146.188 -11876.604)" fill="#450072"/>
    <path id="Path_21807" data-name="Path 21807" d="M560.482,314.359l-1.856,9.916h-1.643l1.856-9.916Z" transform="translate(-10140.799 -11878.215)" fill="#450072"/>
    <path id="Path_21808" data-name="Path 21808" d="M564.494,315.875a2.212,2.212,0,0,1,.836,1.4l.327-1.827h1.629l-1.4,7.868H564.26l.33-1.827a3.59,3.59,0,0,1-1.31,1.4,3.532,3.532,0,0,1-1.917.527,2.826,2.826,0,0,1-2.159-.828,3.2,3.2,0,0,1-.786-2.286,5.349,5.349,0,0,1,.1-1.055,5.131,5.131,0,0,1,.82-2.078,4.169,4.169,0,0,1,1.487-1.35,3.9,3.9,0,0,1,1.89-.472,2.806,2.806,0,0,1,1.777.53m-3.325,1.6a3.205,3.205,0,0,0-.994,1.9,3.291,3.291,0,0,0-.055.641,1.922,1.922,0,0,0,.525,1.442,2.008,2.008,0,0,0,1.458.514,2.694,2.694,0,0,0,1.84-.707,3.473,3.473,0,0,0,1.07-2.492,1.862,1.862,0,0,0-1.983-2,2.679,2.679,0,0,0-1.861.7" transform="translate(-10138.45 -11876.602)" fill="#450072"/>
  </g>
</svg>
